<svg xmlns="http://www.w3.org/2000/svg" viewBox="0 0 320 96" role="img" aria-label="MarkFlow logo">
  <rect width="320" height="96" rx="18" fill="#F7FAF8"/>
  <rect x="24" y="20" width="56" height="56" rx="13" fill="#2F7D68"/>
  <path d="M36 58V36h7l9 13 9-13h7v22h-7V47l-6 10h-5l-7-10v11h-7z" fill="#FFFFFF"/>
  <path d="M100 56V33h8l8 14 8-14h8v23h-7V44l-7 12h-4l-7-12v12h-7zm45 0h-8l10-23h8l10 23h-8l-2-5h-9l-1 5zm3-11h6l-3-8-3 8zm22 11V33h17c5 0 9 4 9 9 0 4-2 7-6 8l7 6h-10l-6-5h-4v5h-7zm7-11h9c2 0 3-1 3-3s-1-3-3-3h-9v6zm27 11V33h7v9l10-9h9l-12 10 13 13h-10l-10-10v10h-7zm37 0V33h24v6h-17v4h15v6h-15v7h-7zm31 0V33h7v17h16v6h-23z" fill="#173B33"/>
</svg>
